<svg width="52" height="54" viewBox="0 0 52 54" fill="none" xmlns="http://www.w3.org/2000/svg">
<rect width="52" height="54" fill="#CDD9C9"/>
<path d="M18.1075 41.21C16.5792 41.0933 15.465 40.6617 14.765 39.915C14.065 39.1567 13.6917 37.9842 13.645 36.3975C13.6333 35.7325 13.6217 35.1142 13.61 34.5425C13.61 33.9592 13.6158 33.3758 13.6275 32.7925C13.6392 32.1975 13.6567 31.5558 13.68 30.8675H16.3575C16.3108 31.9058 16.2817 32.9033 16.27 33.86C16.27 34.805 16.2992 35.7675 16.3575 36.7475C16.3808 37.3892 16.5208 37.8675 16.7775 38.1825C17.0458 38.4975 17.4892 38.6958 18.1075 38.7775V41.21ZM19.98 41.21V38.7775C20.5517 38.6842 20.96 38.4858 21.205 38.1825C21.45 37.8675 21.5958 37.3892 21.6425 36.7475C21.6892 36.2458 21.7125 35.7033 21.7125 35.12C21.7242 34.525 21.7183 33.9358 21.695 33.3525C21.6833 32.7692 21.6658 32.2208 21.6425 31.7075C21.6192 30.7742 21.4325 30.0742 21.0825 29.6075C20.7325 29.1408 20.1608 28.8083 19.3675 28.61L17.425 28.1375C16.4683 27.9042 15.7158 27.5658 15.1675 27.1225C14.6192 26.6675 14.2283 26.0608 13.995 25.3025C13.7617 24.5442 13.6275 23.5817 13.5925 22.415C13.5808 21.6567 13.575 20.8692 13.575 20.0525C13.5867 19.2242 13.5983 18.39 13.61 17.55C13.6567 15.975 14.03 14.8142 14.73 14.0675C15.43 13.3208 16.5558 12.895 18.1075 12.79V15.2225C17.5125 15.3042 17.0808 15.5025 16.8125 15.8175C16.5558 16.1208 16.4158 16.5933 16.3925 17.235C16.3458 18.1217 16.3225 18.9792 16.3225 19.8075C16.3225 20.6358 16.3458 21.505 16.3925 22.415C16.4158 23.4183 16.5558 24.1592 16.8125 24.6375C17.0692 25.1042 17.5125 25.4133 18.1425 25.565L19.98 25.985C21.0767 26.2417 21.94 26.5975 22.57 27.0525C23.2117 27.5075 23.6725 28.1142 23.9525 28.8725C24.2442 29.6308 24.4075 30.5758 24.4425 31.7075C24.4658 32.1975 24.4775 32.7167 24.4775 33.265C24.4775 33.8017 24.4717 34.3383 24.46 34.875C24.4483 35.4117 24.4367 35.9192 24.425 36.3975C24.355 37.9842 23.9758 39.1567 23.2875 39.915C22.5992 40.6733 21.4967 41.105 19.98 41.21ZM21.59 22.7125C21.625 21.6392 21.6425 20.665 21.6425 19.79C21.6542 18.915 21.6425 18.0633 21.6075 17.235C21.5842 16.605 21.45 16.1325 21.205 15.8175C20.96 15.5025 20.5517 15.2983 19.98 15.205V12.79C21.4617 12.9067 22.5408 13.3383 23.2175 14.085C23.8942 14.8317 24.2617 15.9983 24.32 17.585C24.3433 18.3083 24.3492 19.1075 24.3375 19.9825C24.3258 20.8458 24.3083 21.7558 24.285 22.7125H21.59ZM26.9754 41L29.9854 13H35.7604L36.0229 15.5025H32.1379L31.4904 24.62L30.9129 30.5875H33.8354L33.1704 33.09H30.6504L29.8279 41H26.9754ZM35.8654 41L34.2554 24.5675L33.6779 16.9375H36.1279L38.7004 41H35.8654Z" fill="#105C42"/>
<path d="M40.7188 6.85363L40.3813 7.17863C40.425 7.224 40.4774 7.26008 40.5354 7.28473C40.5934 7.30938 40.6557 7.32208 40.7188 7.32208C40.7818 7.32208 40.8441 7.30938 40.9021 7.28473C40.9601 7.26008 41.0125 7.224 41.0562 7.17863L40.7188 6.85363ZM37.5938 13.6786C37.4976 13.5996 37.374 13.5619 37.2501 13.574C37.1262 13.5861 37.0122 13.6469 36.9331 13.743C36.8541 13.8391 36.8164 13.9628 36.8285 14.0866C36.8406 14.2105 36.9014 14.3246 36.9975 14.4036L37.5938 13.6786ZM34.6819 11.798C34.7415 11.9071 34.8421 11.988 34.9614 12.0229C35.0807 12.0578 35.2091 12.0439 35.3181 11.9843C35.4272 11.9246 35.5081 11.824 35.543 11.7047C35.578 11.5854 35.564 11.4571 35.5044 11.348L34.6819 11.798ZM43.5306 11.6399L43.2013 11.9736C43.289 12.0603 43.4073 12.1089 43.5306 12.1089C43.6539 12.1089 43.7723 12.0603 43.86 11.9736L43.5306 11.6399ZM45.3725 16.0168C45.4703 15.942 45.5347 15.8317 45.5518 15.7099C45.569 15.588 45.5376 15.4642 45.4643 15.3654C45.391 15.2665 45.2818 15.2004 45.1602 15.1813C45.0386 15.1623 44.9144 15.1919 44.8144 15.2636L45.3725 16.0168ZM46.2487 13.8186C46.2183 13.8729 46.1989 13.9327 46.1918 13.9945C46.1847 14.0563 46.1899 14.1189 46.2072 14.1787C46.2246 14.2385 46.2536 14.2942 46.2927 14.3426C46.3318 14.391 46.3801 14.4312 46.4349 14.4607C46.4897 14.4903 46.5498 14.5086 46.6117 14.5147C46.6737 14.5208 46.7362 14.5144 46.7956 14.4961C46.8551 14.4777 46.9103 14.4477 46.9581 14.4078C47.0058 14.3679 47.0451 14.3189 47.0737 14.2636L46.2487 13.8186ZM34.9375 9.12675C34.9375 7.783 35.6969 6.6555 36.7338 6.18113C37.7413 5.7205 39.095 5.84238 40.3813 7.17863L41.0562 6.52925C39.5312 4.94363 37.7587 4.68175 36.3438 5.32863C34.96 5.96175 34 7.43175 34 9.12675H34.9375ZM38.5294 15.6036C38.85 15.8561 39.1937 16.1249 39.5419 16.3286C39.89 16.5324 40.2875 16.6974 40.7188 16.6974V15.7599C40.525 15.7599 40.2975 15.6849 40.015 15.5193C39.7319 15.3543 39.4387 15.1268 39.11 14.8674L38.5294 15.6036ZM47.4375 9.12675C47.4375 7.43175 46.4781 5.96175 45.0938 5.32863C43.6788 4.68175 41.9075 4.94363 40.3813 6.52863L41.0562 7.17863C42.3425 5.843 43.6962 5.7205 44.7037 6.18113C45.7406 6.6555 46.5 7.78238 46.5 9.12675H47.4375ZM39.11 14.8674C38.6125 14.4755 38.1069 14.1011 37.5944 13.6793L36.9981 14.403C37.5169 14.8299 38.0656 15.238 38.5294 15.6036L39.11 14.8674ZM35.505 11.3486C35.1285 10.6689 34.933 9.90379 34.9375 9.12675H34C34 10.1505 34.2625 11.0305 34.6825 11.7986L35.505 11.3486ZM44.2944 15.6468C44.1438 15.7654 43.9855 15.8739 43.8206 15.9718C43.68 16.0499 43.59 16.0724 43.5312 16.0724V17.0099C43.8163 17.0099 44.0694 16.9061 44.2762 16.7911C44.4825 16.6774 44.6825 16.5274 44.8569 16.3974L44.2944 15.6468ZM47.4375 12.828C47.4393 12.2091 47.2019 11.6135 46.775 11.1655L46.0969 11.8136C46.345 12.073 46.5 12.4305 46.5 12.8286L47.4375 12.828ZM42.2063 16.3968C42.38 16.528 42.5806 16.6774 42.7862 16.7918C42.9919 16.9061 43.2462 17.0099 43.5312 17.0099V16.0724C43.4725 16.0724 43.3825 16.0499 43.2419 15.9724C43.077 15.8743 42.9187 15.7656 42.7681 15.6468L42.2063 16.3968ZM40.5625 12.828C40.5625 12.4305 40.7175 12.0736 40.9656 11.8136L40.2875 11.1661C39.8606 11.6142 39.6232 12.2098 39.625 12.8286L40.5625 12.828ZM40.9656 11.8136C41.0914 11.68 41.2428 11.5731 41.4109 11.4994C41.579 11.4257 41.7602 11.3868 41.9438 11.3849C42.3156 11.383 42.7581 11.5361 43.2013 11.9736L43.8606 11.3068C43.265 10.7186 42.5919 10.4443 41.9394 10.4474C41.6298 10.4499 41.324 10.5148 41.0401 10.6383C40.7563 10.7618 40.5003 10.9413 40.2875 11.1661L40.9656 11.8136ZM44.8569 16.3968C45.0238 16.2718 45.1863 16.1555 45.3731 16.0168L44.815 15.2636C44.6463 15.388 44.4588 15.5236 44.2944 15.6468L44.8569 16.3968ZM47.0744 14.2636C47.3145 13.8233 47.4394 13.3295 47.4375 12.828H46.5C46.5 13.2061 46.4063 13.5293 46.25 13.8186L47.0744 14.2636ZM42.7681 15.6468C42.6194 15.5355 42.4581 15.4186 42.3056 15.3068L41.7494 16.0611C41.9119 16.1805 42.0606 16.288 42.2056 16.3968L42.7681 15.6468ZM42.3056 15.3068C41.3606 14.6099 40.5625 13.923 40.5625 12.8286H39.625C39.625 14.4499 40.845 15.3949 41.7494 16.0611L42.3056 15.3068ZM41.7569 15.3011C41.325 15.6074 40.9956 15.7599 40.7188 15.7599V16.6974C41.3094 16.6974 41.8475 16.3861 42.2987 16.0661L41.7569 15.3011ZM46.775 11.1655L46.7363 11.1268L46.0738 11.7893L46.0969 11.8136L46.775 11.1655ZM46.7363 11.1268C46.5214 10.9099 46.2655 10.7382 45.9835 10.6215C45.7014 10.5048 45.399 10.4456 45.0938 10.4474C44.45 10.4524 43.7881 10.7274 43.2019 11.3068L43.8606 11.9736C44.2975 11.5424 44.7331 11.388 45.1012 11.3849C45.2822 11.3841 45.4614 11.4195 45.6284 11.4891C45.7954 11.5587 45.9469 11.6603 46.0738 11.7893L46.7363 11.1268ZM46.8219 11.673C47.2306 10.8868 47.4419 10.0129 47.4375 9.12675H46.5C46.5 9.93488 46.3062 10.6286 45.9887 11.243L46.8219 11.673Z" fill="#105C42"/>
</svg>
